mtllib ipe_140-50.mtl
o ipe_140-50_1
v -9.35 6.9 25
v -7.538 7.139 25
v -9.35 6.9 -25
v -7.538 7.139 -25
v -5.85 7.838 -25
v -5.85 7.838 25
v -4.4 8.95 25
v -4.4 8.95 -25
v -3.288 10.4 25
v -3.288 10.4 -25
v -2.589 12.088 25
v -2.589 12.088 -25
v -2.35 13.9 -25
v -2.35 13.9 25
v -36.5 0 25
v 36.5 0 25
v 9.35 6.9 25
v 7.538 7.139 25
v 5.85 7.838 25
v 4.4 8.95 25
v 3.288 10.4 25
v 2.589 12.088 25
v 2.35 13.9 25
v -2.35 126.1 25
v 2.35 126.1 25
v -2.589 127.912 25
v 2.589 127.912 25
v -3.288 129.6 25
v 3.288 129.6 25
v -4.4 131.05 25
v 4.4 131.05 25
v -5.85 132.162 25
v 5.85 132.162 25
v -7.538 132.861 25
v 7.538 132.861 25
v -9.35 133.1 25
v 9.35 133.1 25
v -36.5 140 25
v 36.5 140 25
v -36.5 6.9 25
v 36.5 6.9 25
v 36.5 133.1 25
v -36.5 133.1 25
v 2.35 13.9 -25
v 2.589 12.088 -25
v 3.288 10.4 -25
v 4.4 8.95 -25
v 5.85 7.838 -25
v 7.538 7.139 -25
v 9.35 6.9 -25
v 2.35 126.1 -25
v -36.5 140 -25
v 36.5 140 -25
v -9.35 133.1 -25
v 9.35 133.1 -25
v -7.538 132.861 -25
v 7.538 132.861 -25
v -5.85 132.162 -25
v 5.85 132.162 -25
v -4.4 131.05 -25
v 4.4 131.05 -25
v -3.288 129.6 -25
v 3.288 129.6 -25
v -2.589 127.912 -25
v 2.589 127.912 -25
v -2.35 126.1 -25
v -36.5 0 -25
v 36.5 0 -25
v -36.5 133.1 -25
v 36.5 133.1 -25
v 36.5 6.9 -25
v -36.5 6.9 -25
vn 0 1 0
vn -0.259 0.966 0
vn -0.5 0.866 0
vn -0.707 0.707 0
vn -0.866 0.5 0
vn -0.966 0.259 0
vn -1 0 0
vn 0 0 1
vn 1 0 0
vn 0.966 0.259 0
vn 0.866 0.5 0
vn 0.707 0.707 0
vn 0.5 0.866 0
vn 0.259 0.966 0
vn 0 0 -1
vn 0 -1 0
vn 0.259 -0.966 0
vn 0.5 -0.866 0
vn 0.707 -0.707 0
vn 0.866 -0.5 0
vn 0.966 -0.259 0
vn -0.966 -0.259 0
vn -0.866 -0.5 0
vn -0.707 -0.707 0
vn -0.5 -0.866 0
vn -0.259 -0.966 0
g ipe_140-50_1
usemtl ipe_140-50_color_1
f 1//1 2//2 3//1
f 3//1 2//2 4//2
f 4//2 2//2 5//3
f 5//3 2//2 6//3
f 5//3 6//3 7//4
f 5//3 7//4 8//4
f 8//4 7//4 9//5
f 8//4 9//5 10//5
f 10//5 9//5 11//6
f 10//5 11//6 12//6
f 12//6 11//6 13//7
f 11//6 14//7 13//7
f 15//8 16//8 1//8
f 1//8 16//8 17//8
f 1//8 17//8 2//8
f 2//8 17//8 18//8
f 2//8 18//8 6//8
f 6//8 18//8 19//8
f 6//8 19//8 7//8
f 7//8 19//8 20//8
f 7//8 20//8 9//8
f 9//8 20//8 21//8
f 9//8 21//8 11//8
f 11//8 21//8 22//8
f 11//8 22//8 14//8
f 14//8 22//8 23//8
f 14//8 23//8 24//8
f 24//8 23//8 25//8
f 24//8 25//8 26//8
f 26//8 25//8 27//8
f 26//8 27//8 28//8
f 28//8 27//8 29//8
f 28//8 29//8 30//8
f 30//8 29//8 31//8
f 30//8 31//8 32//8
f 32//8 31//8 33//8
f 32//8 33//8 34//8
f 34//8 33//8 35//8
f 34//8 35//8 36//8
f 36//8 35//8 37//8
f 36//8 37//8 38//8
f 38//8 37//8 39//8
f 1//8 40//8 15//8
f 16//8 41//8 17//8
f 37//8 42//8 39//8
f 38//8 43//8 36//8
f 23//9 22//10 44//9
f 44//9 22//10 45//10
f 45//10 22//10 46//11
f 46//11 22//10 21//11
f 46//11 21//11 20//12
f 46//11 20//12 47//12
f 47//12 20//12 19//13
f 47//12 19//13 48//13
f 48//13 19//13 18//14
f 48//13 18//14 49//14
f 49//14 18//14 50//1
f 18//14 17//1 50//1
f 23//9 44//9 25//9
f 25//9 44//9 51//9
f 52//15 53//15 54//15
f 54//15 53//15 55//15
f 54//15 55//15 56//15
f 56//15 55//15 57//15
f 56//15 57//15 58//15
f 58//15 57//15 59//15
f 58//15 59//15 60//15
f 60//15 59//15 61//15
f 60//15 61//15 62//15
f 62//15 61//15 63//15
f 62//15 63//15 64//15
f 64//15 63//15 65//15
f 64//15 65//15 66//15
f 66//15 65//15 51//15
f 66//15 51//15 13//15
f 13//15 51//15 44//15
f 13//15 44//15 12//15
f 12//15 44//15 45//15
f 12//15 45//15 10//15
f 10//15 45//15 46//15
f 10//15 46//15 8//15
f 8//15 46//15 47//15
f 8//15 47//15 5//15
f 5//15 47//15 48//15
f 5//15 48//15 4//15
f 4//15 48//15 49//15
f 4//15 49//15 3//15
f 3//15 49//15 50//15
f 3//15 50//15 67//15
f 67//15 50//15 68//15
f 54//15 69//15 52//15
f 53//15 70//15 55//15
f 50//15 71//15 68//15
f 67//15 72//15 3//15
f 50//1 17//1 71//1
f 71//1 17//1 41//1
f 37//16 35//17 55//16
f 55//16 35//17 57//17
f 57//17 35//17 59//18
f 59//18 35//17 33//18
f 59//18 33//18 31//19
f 59//18 31//19 61//19
f 61//19 31//19 29//20
f 61//19 29//20 63//20
f 63//20 29//20 27//21
f 63//20 27//21 65//21
f 65//21 27//21 51//9
f 27//21 25//9 51//9
f 37//16 55//16 42//16
f 42//16 55//16 70//16
f 24//7 26//22 66//7
f 66//7 26//22 64//22
f 64//22 26//22 62//23
f 62//23 26//22 28//23
f 62//23 28//23 30//24
f 62//23 30//24 60//24
f 60//24 30//24 32//25
f 60//24 32//25 58//25
f 58//25 32//25 34//26
f 58//25 34//26 56//26
f 56//26 34//26 54//16
f 34//26 36//16 54//16
f 54//16 36//16 69//16
f 69//16 36//16 43//16
f 38//7 52//7 43//7
f 43//7 52//7 69//7
f 42//9 70//9 39//9
f 39//9 70//9 53//9
f 13//7 14//7 66//7
f 66//7 14//7 24//7
f 39//1 53//1 38//1
f 38//1 53//1 52//1
f 1//1 3//1 40//1
f 40//1 3//1 72//1
f 68//16 16//16 67//16
f 67//16 16//16 15//16
f 40//7 72//7 15//7
f 15//7 72//7 67//7
f 16//9 68//9 41//9
f 41//9 68//9 71//9
l 1 2
l 2 6
l 6 7
l 7 9
l 9 11
l 11 14
l 14 13
l 3 4
l 4 5
l 5 8
l 8 10
l 10 12
l 12 13
l 1 3
l 24 14
l 1 40
l 40 15
l 15 16
l 16 41
l 41 17
l 23 22
l 22 21
l 21 20
l 20 19
l 19 18
l 18 17
l 23 25
l 37 35
l 35 33
l 33 31
l 31 29
l 29 27
l 27 25
l 37 42
l 42 39
l 39 38
l 38 43
l 43 36
l 24 26
l 26 28
l 28 30
l 30 32
l 32 34
l 34 36
l 17 50
l 44 45
l 45 46
l 46 47
l 47 48
l 48 49
l 49 50
l 23 44
l 51 44
l 25 51
l 13 66
l 66 64
l 64 62
l 62 60
l 60 58
l 58 56
l 56 54
l 54 69
l 69 52
l 52 53
l 53 70
l 70 55
l 55 57
l 57 59
l 59 61
l 61 63
l 63 65
l 65 51
l 50 71
l 71 68
l 68 67
l 67 72
l 72 3
l 41 71
l 37 55
l 42 70
l 36 54
l 24 66
l 43 69
l 38 52
l 39 53
l 40 72
l 16 68
l 15 67
